PathFileType	4	(X/Y/Z)	OpenSim_Sub10_EMGBaseline_Magnet.trc
DataRate	CameraRate	NumFrames	NumMarkers	Units	OrigDataRate	OrigDataStartFrame	OrigNumFrames
100	100	23	8	m	100	2051	8201
Frame#	Time	torso_imu_offset_imu	pelvis_imu_offset_imu	tibia_r_imu_offset_imu	femur_r_imu_offset_imu	tibia_l_imu_offset_imu	femur_l_imu_offset_imu	toes_r_imu_offset_imu	toes_l_imu_offset_imu
				X1	Y1	Z1	X2	Y2	Z2	X3	Y3	Z3	X4	Y4	Z4	X5	Y5	Z5	X6	Y6	Z6	X7	Y7	Z7	X8		Y8	Z8	

2051	20.50000000	-0.94311500	-0.08032200	0.12500000	-0.65332000	0.07421900	-0.69848600	-0.66503900	-0.62231400	-0.08837900	-0.73120100	-0.40698200	0.06982400	-0.26269500	0.77563500	0.12915000	-0.80761700	0.03222700	0.25512700	-0.60498000	-0.28955100	-0.37402300	-0.82397500	-0.01904300	0.06518600
2052	20.51000000	-0.94116200	-0.07617200	0.12475600	-0.64892600	0.07006800	-0.70312500	-0.66479500	-0.62451200	-0.09741200	-0.72021500	-0.42334000	0.07055700	-0.29150400	0.76904300	0.11645500	-0.80712900	0.02148400	0.25073200	-0.61108400	-0.29174800	-0.37622100	-0.82397500	-0.01855500	0.02246100
2053	20.52000000	-0.94116200	-0.07397500	0.12475600	-0.64233400	0.06811500	-0.70068400	-0.66674800	-0.63085900	-0.09497100	-0.72021500	-0.42749000	0.06616200	-0.31811500	0.76025400	0.10620100	-0.80883800	0.00634800	0.25537100	-0.60278300	-0.29150400	-0.37817400	-0.82177700	-0.02075200	-0.00903300
2054	20.53000000	-0.93896500	-0.07202100	0.13134800	-0.65087900	0.06591800	-0.70288100	-0.66479500	-0.62646500	-0.09936500	-0.71801800	-0.43164100	0.06860400	-0.34668000	0.74047900	0.11181600	-0.80859400	0.00195300	0.25097700	-0.60058600	-0.29760700	-0.39062500	-0.82397500	-0.02050800	-0.04736300
2055	20.54000000	-0.94335900	-0.07421900	0.12915000	-0.64233400	0.06396500	-0.70507800	-0.66674800	-0.62646500	-0.10400400	-0.70703100	-0.44409200	0.07153300	-0.39086900	0.72070300	0.10668900	-0.81298800	-0.00463900	0.25317400	-0.59643600	-0.29956100	-0.39477500	-0.82177700	-0.02246100	-0.08325200
2056	20.55000000	-0.94335900	-0.06982400	0.13769500	-0.64428700	0.05761700	-0.70483400	-0.66259800	-0.63061500	-0.10815400	-0.70507800	-0.44604500	0.06909200	-0.41723600	0.70288100	0.10571300	-0.81274400	-0.00903300	0.25097700	-0.60034200	-0.30566400	-0.39672900	-0.81713900	-0.02441400	-0.12597700
2057	20.56000000	-0.94970700	-0.07421900	0.13793900	-0.64209000	0.05761700	-0.70483400	-0.66040000	-0.63061500	-0.10595700	-0.70068400	-0.45214800	0.07177700	-0.46118200	0.68090800	0.10742200	-0.81250000	-0.01977500	0.24902300	-0.59399400	-0.30981400	-0.40918000	-0.80346700	-0.03271500	-0.16406200
2058	20.57000000	-0.94140600	-0.06787100	0.13549800	-0.63793900	0.06396500	-0.71215800	-0.66015600	-0.63476600	-0.11474600	-0.69384800	-0.46460000	0.06298800	-0.48950200	0.65234400	0.10913100	-0.81250000	-0.01757800	0.24658200	-0.59594700	-0.30981400	-0.40918000	-0.79663100	-0.03247100	-0.20459000
2059	20.58000000	-0.93920900	-0.06982400	0.13989300	-0.63574200	0.06176800	-0.71435500	-0.65600600	-0.63891600	-0.11694300	-0.68969700	-0.47070300	0.06567400	-0.52465800	0.62573200	0.10424800	-0.80590800	-0.01757800	0.24438500	-0.59790000	-0.32202100	-0.41503900	-0.78320300	-0.03222700	-0.24267600
2060	20.59000000	-0.94335900	-0.06982400	0.13989300	-0.63769500	0.05981400	-0.71191400	-0.64965800	-0.63891600	-0.12353500	-0.68750000	-0.47290000	0.07495100	-0.55932600	0.59497100	0.11523400	-0.81005900	-0.02197300	0.24902300	-0.59790000	-0.31982400	-0.41943400	-0.77880900	-0.03418000	-0.27197300
2061	20.60000000	-0.94116200	-0.07397500	0.14233400	-0.63769500	0.05542000	-0.71411100	-0.65356400	-0.64746100	-0.12109400	-0.68286100	-0.48315400	0.07080100	-0.59619100	0.55737300	0.13085900	-0.80810500	-0.01757800	0.24877900	-0.59960900	-0.33422900	-0.42334000	-0.76709000	-0.04492200	-0.30786100
2062	20.61000000	-0.94116200	-0.07202100	0.15112300	-0.63354500	0.05981400	-0.71899400	-0.64306600	-0.64941400	-0.12768600	-0.67651400	-0.48925800	0.06860400	-0.62622100	0.51342800	0.13330100	-0.81030300	-0.01538100	0.25122100	-0.60376000	-0.33618200	-0.42944300	-0.74902300	-0.05322300	-0.34814500
2063	20.62000000	-0.93920900	-0.06982400	0.15087900	-0.63354500	0.05761700	-0.71191400	-0.64306600	-0.64941400	-0.12988300	-0.66796900	-0.49145500	0.07104500	-0.65844700	0.46948200	0.14282200	-0.81054700	-0.00903300	0.24877900	-0.59936500	-0.34033200	-0.43139600	-0.73291000	-0.06176800	-0.37963900
2064	20.63000000	-0.93945300	-0.05932600	0.15063500	-0.63354500	0.05981400	-0.70971700	-0.64502000	-0.65161100	-0.12988300	-0.67211900	-0.49975600	0.07812500	-0.68432600	0.42993200	0.12939500	-0.81298800	-0.00463900	0.25097700	-0.60742200	-0.35058600	-0.44384800	-0.71460000	-0.07031200	-0.41333000
2065	20.64000000	-0.94140600	-0.06982400	0.15087900	-0.63989300	0.05957000	-0.70971700	-0.64086900	-0.64941400	-0.13671900	-0.66552700	-0.50366200	0.07373000	-0.70556600	0.39233400	0.12695300	-0.81518600	-0.00463900	0.25317400	-0.60522500	-0.35864300	-0.44580100	-0.68920900	-0.09399400	-0.44458000
2066	20.65000000	-0.93725600	-0.06567400	0.15527300	-0.64209000	0.06176800	-0.70752000	-0.63623000	-0.65991200	-0.13623000	-0.65502900	-0.51001000	0.08105500	-0.71582000	0.36157200	0.12646500	-0.80883800	0.00634800	0.25097700	-0.61108400	-0.36694300	-0.44580100	-0.67065400	-0.11352500	-0.47363300
2067	20.66000000	-0.94165000	-0.06152300	0.14843800	-0.63354500	0.06176800	-0.70507800	-0.62768600	-0.66601600	-0.14721700	-0.65478500	-0.51391600	0.07666000	-0.73266600	0.33081100	0.11254900	-0.81127900	0.01489300	0.24633800	-0.61303700	-0.37304700	-0.44970700	-0.64526400	-0.13305700	-0.49829100
2068	20.67000000	-0.93945300	-0.06347700	0.15502900	-0.63354500	0.06176800	-0.71215800	-0.62963900	-0.67016600	-0.14038100	-0.64209000	-0.52221700	0.07226600	-0.74780300	0.31103500	0.11377000	-0.81396500	0.02368200	0.24853500	-0.61499000	-0.38110400	-0.45385700	-0.62036100	-0.14160200	-0.52734400
2069	20.68000000	-0.93725600	-0.06567400	0.15747100	-0.64013700	0.06396500	-0.70288100	-0.62329100	-0.67431600	-0.14477500	-0.64184600	-0.52636700	0.07031200	-0.74926800	0.28247100	0.10156200	-0.81176800	0.03002900	0.24389600	-0.62524400	-0.38745100	-0.45996100	-0.60205100	-0.15014600	-0.53857400
2070	20.69000000	-0.93945300	-0.06347700	0.15502900	-0.64013700	0.06591800	-0.70532200	-0.61254900	-0.67846700	-0.14672900	-0.64599600	-0.53271500	0.07275400	-0.76416000	0.25610400	0.09643600	-0.81420900	0.03662100	0.24169900	-0.62695300	-0.39770500	-0.46411100	-0.58422900	-0.14526400	-0.56543000
2071	20.70000000	-0.93945300	-0.06152300	0.15942400	-0.63574200	0.06396500	-0.70507800	-0.61254900	-0.68261700	-0.14892600	-0.63745100	-0.53466800	0.07275400	-0.76806600	0.23632800	0.09301800	-0.81225600	0.04321300	0.23925800	-0.63305700	-0.40380900	-0.46386700	-0.57299800	-0.14746100	-0.57006800
2072	20.71000000	-0.93920900	-0.06567400	0.15527300	-0.64233400	0.06811500	-0.70068400	-0.60180700	-0.68896500	-0.14868200	-0.63501000	-0.54296900	0.06616200	-0.77880900	0.22094700	0.08276400	-0.81250000	0.04760700	0.23022500	-0.63281200	-0.41210900	-0.45752000	-0.56616200	-0.14965800	-0.58105500
2073	20.72000000	-0.93945300	-0.06347700	0.15942400	-0.63818400	0.06811500	-0.69360400	-0.59350600	-0.69091800	-0.15527300	-0.63281200	-0.54907200	0.07104500	-0.77636700	0.21435500	0.08520500	-0.80127000	0.04541000	0.24365200	-0.64502000	-0.42236300	-0.45947300	-0.55493200	-0.15161100	-0.59008800
